<svg width="855" height="24" viewBox="0 0 855 24" fill="none" xmlns="http://www.w3.org/2000/svg">
<g clip-path="url(#clip0_49_73)">
<path d="M473.25 6H486.75V7.5H473.25V6ZM474.75 17.25H485.25V18.75H474.75V17.25ZM473.25 13.5H486.75V15H473.25V13.5ZM474.75 9.75H485.25V11.25H474.75V9.75Z" fill="black"/>
</g>
<g clip-path="url(#clip1_49_73)">
<path d="M509.25 6H522.75V7.5H509.25V6ZM509.25 17.25H522.75V18.75H509.25V17.25ZM509.25 13.5H522.75V15H509.25V13.5ZM509.25 9.75H522.75V11.25H509.25V9.75Z" fill="black"/>
</g>
<g clip-path="url(#clip2_49_73)">
<path d="M797.25 6H810.75V7.5H797.25V6ZM797.25 17.25H807.75V18.75H797.25V17.25ZM797.25 13.5H810.75V15H797.25V13.5ZM797.25 9.75H807.75V11.25H797.25V9.75Z" fill="black"/>
</g>
<g clip-path="url(#clip3_49_73)">
<path d="M437.25 6H450.75V7.5H437.25V6ZM440.25 17.25H450.75V18.75H440.25V17.25ZM437.25 13.5H450.75V15H437.25V13.5ZM440.25 9.75H450.75V11.25H440.25V9.75Z" fill="black"/>
</g>
<g clip-path="url(#clip4_49_73)">
<path d="M9 11.25H12.375C12.8723 11.25 13.3492 11.0525 13.7008 10.7008C14.0525 10.3492 14.25 9.87228 14.25 9.375C14.25 8.87772 14.0525 8.40081 13.7008 8.04917C13.3492 7.69754 12.8723 7.5 12.375 7.5H9V11.25ZM16.5 14.625C16.5 15.0682 16.4127 15.5071 16.2431 15.9166C16.0735 16.326 15.8249 16.6981 15.5115 17.0115C15.1981 17.3249 14.826 17.5735 14.4166 17.7431C14.0071 17.9127 13.5682 18 13.125 18H7.5V6H12.375C13.0357 6.00003 13.6819 6.19399 14.2334 6.55783C14.7849 6.92168 15.2175 7.4394 15.4775 8.0468C15.7375 8.6542 15.8136 9.32457 15.6961 9.97477C15.5787 10.625 15.273 11.2264 14.817 11.7045C15.329 12.001 15.754 12.4269 16.0494 12.9395C16.3448 13.4521 16.5002 14.0334 16.5 14.625ZM9 12.75V16.5H13.125C13.6223 16.5 14.0992 16.3025 14.4508 15.9508C14.8025 15.5992 15 15.1223 15 14.625C15 14.1277 14.8025 13.6508 14.4508 13.2992C14.0992 12.9475 13.6223 12.75 13.125 12.75H9Z" fill="black"/>
</g>
<g clip-path="url(#clip5_49_73)">
<path d="M663.712 9.34801L664.773 8.28751L668.485 12L664.773 15.7125L663.712 14.652L666.364 12L663.712 9.34801ZM656.287 9.34801L653.636 12L656.287 14.652L655.227 15.7125L651.514 12L655.227 8.28751L656.287 9.34801V9.34801Z" fill="black"/>
</g>
<g clip-path="url(#clip6_49_73)">
<path d="M545.25 6H558.75V7.5H545.25V6ZM545.25 17.25H558.75V18.75H545.25V17.25ZM551.25 13.5H558.75V15H551.25V13.5ZM551.25 9.75H558.75V11.25H551.25V9.75ZM545.25 12.375L548.25 9.75V15L545.25 12.375Z" fill="black"/>
</g>
<g clip-path="url(#clip7_49_73)">
<path d="M581.25 6H594.75V7.5H581.25V6ZM581.25 17.25H594.75V18.75H581.25V17.25ZM587.25 13.5H594.75V15H587.25V13.5ZM587.25 9.75H594.75V11.25H587.25V9.75ZM584.25 12.375L581.25 15V9.75L584.25 12.375Z" fill="black"/>
</g>
<g clip-path="url(#clip8_49_73)">
<path d="M50.25 18H44.25V16.5H46.4453L48.0323 7.5H45.75V6H51.75V7.5H49.5547L47.9677 16.5H50.25V18Z" fill="black"/>
</g>
<g clip-path="url(#clip9_49_73)">
<path d="M232.243 14.121L231.182 13.0605L232.243 12C232.521 11.7214 232.742 11.3907 232.893 11.0267C233.044 10.6627 233.122 10.2726 233.122 9.87863C233.122 9.48465 233.044 9.09453 232.893 8.73055C232.742 8.36656 232.521 8.03584 232.243 7.75725C231.964 7.47867 231.634 7.25769 231.27 7.10692C230.906 6.95615 230.515 6.87855 230.121 6.87855C229.727 6.87855 229.337 6.95615 228.973 7.10692C228.609 7.25769 228.279 7.47867 228 7.75725L226.94 8.81775L225.879 7.75725L226.94 6.69675C227.786 5.86419 228.927 5.39974 230.114 5.40458C231.301 5.40941 232.438 5.88314 233.278 6.72256C234.117 7.56199 234.591 8.6991 234.595 9.88622C234.6 11.0733 234.136 12.2143 233.303 13.0605L232.243 14.121V14.121ZM230.121 16.2428L229.061 17.3033C228.644 17.7267 228.148 18.0635 227.6 18.2942C227.053 18.5248 226.465 18.6448 225.871 18.6473C225.277 18.6497 224.688 18.5345 224.139 18.3082C223.59 18.082 223.091 17.7493 222.671 17.3293C222.251 16.9092 221.918 16.4102 221.692 15.8609C221.466 15.3116 221.35 14.723 221.353 14.129C221.355 13.5349 221.475 12.9473 221.706 12.3999C221.937 11.8524 222.273 11.3561 222.697 10.9395L223.757 9.879L224.818 10.9395L223.757 12C223.479 12.2786 223.258 12.6093 223.107 12.9733C222.956 13.3373 222.879 13.7274 222.879 14.1214C222.879 14.5154 222.956 14.9055 223.107 15.2695C223.258 15.6334 223.479 15.9642 223.757 16.2428C224.036 16.5213 224.367 16.7423 224.731 16.8931C225.095 17.0439 225.485 17.1215 225.879 17.1215C226.273 17.1215 226.663 17.0439 227.027 16.8931C227.391 16.7423 227.721 16.5213 228 16.2428L229.061 15.1823L230.121 16.2428ZM230.121 8.81775L231.182 9.879L225.879 15.1815L224.818 14.121L230.121 8.8185V8.81775Z" fill="black"/>
</g>
<g clip-path="url(#clip10_49_73)">
<path d="M268.243 14.121L267.182 13.0605L268.243 12C268.521 11.7214 268.742 11.3907 268.893 11.0267C269.044 10.6627 269.122 10.2726 269.122 9.87861C269.122 9.48464 269.044 9.09452 268.893 8.73053C268.742 8.36655 268.521 8.03582 268.243 7.75724C267.964 7.47865 267.633 7.25767 267.27 7.1069C266.906 6.95613 266.515 6.87854 266.121 6.87854C265.727 6.87854 265.337 6.95613 264.973 7.1069C264.609 7.25767 264.279 7.47865 264 7.75724L262.94 8.81774L261.879 7.75724L262.94 6.69674C263.786 5.86418 264.927 5.39973 266.114 5.40456C267.301 5.4094 268.438 5.88312 269.277 6.72255C270.117 7.56197 270.591 8.69909 270.595 9.8862C270.6 11.0733 270.136 12.2143 269.303 13.0605L268.243 14.121V14.121ZM266.121 16.2427L265.061 17.3032C264.644 17.7267 264.148 18.0635 263.6 18.2941C263.053 18.5248 262.465 18.6448 261.871 18.6472C261.277 18.6497 260.688 18.5344 260.139 18.3082C259.59 18.082 259.091 17.7493 258.671 17.3293C258.251 16.9092 257.918 16.4102 257.692 15.8609C257.466 15.3116 257.35 14.723 257.353 14.129C257.355 13.5349 257.475 12.9473 257.706 12.3998C257.937 11.8524 258.273 11.3561 258.697 10.9395L259.757 9.87899L260.818 10.9395L259.757 12C259.479 12.2786 259.258 12.6093 259.107 12.9733C258.956 13.3373 258.879 13.7274 258.879 14.1214C258.879 14.5153 258.956 14.9055 259.107 15.2694C259.258 15.6334 259.479 15.9642 259.757 16.2427C260.036 16.5213 260.367 16.7423 260.731 16.8931C261.095 17.0438 261.485 17.1214 261.879 17.1214C262.273 17.1214 262.663 17.0438 263.027 16.8931C263.391 16.7423 263.721 16.5213 264 16.2427L265.061 15.1822L266.121 16.2427ZM266.121 8.81774L267.182 9.87899L261.879 15.1815L260.818 14.121L266.121 8.81849V8.81774ZM259.331 4.71974L260.78 4.33124L261.557 7.22999L260.108 7.61849L259.331 4.72049V4.71974ZM266.444 16.7707L267.892 16.3822L268.669 19.2802L267.22 19.6687L266.444 16.7707V16.7707ZM256.72 7.33124L259.618 8.10824L259.229 9.55649L256.331 8.78024L256.72 7.33124ZM268.771 14.4435L271.669 15.2197L271.28 16.6687L268.382 15.8917L268.771 14.4435V14.4435Z" fill="black"/>
</g>
<g clip-path="url(#clip11_49_73)">
<path d="M333 6H342.75V7.5H333V6ZM330.75 5.25V7.5H331.5V8.25H329.25V7.5H330V6H329.25V5.25H330.75ZM329.25 13.5V11.625H330.75V11.25H329.25V10.5H331.5V12.375H330V12.75H331.5V13.5H329.25ZM330.75 17.625H329.25V16.875H330.75V16.5H329.25V15.75H331.5V18.75H329.25V18H330.75V17.625ZM333 11.25H342.75V12.75H333V11.25ZM333 16.5H342.75V18H333V16.5Z" fill="black"/>
</g>
<g clip-path="url(#clip12_49_73)">
<path d="M369 6H378.75V7.5H369V6ZM366.375 7.875C366.077 7.875 365.79 7.75647 365.58 7.5455C365.369 7.33452 365.25 7.04837 365.25 6.75C365.25 6.45163 365.369 6.16548 365.58 5.9545C365.79 5.74353 366.077 5.625 366.375 5.625C366.673 5.625 366.96 5.74353 367.17 5.9545C367.381 6.16548 367.5 6.45163 367.5 6.75C367.5 7.04837 367.381 7.33452 367.17 7.5455C366.96 7.75647 366.673 7.875 366.375 7.875ZM366.375 13.125C366.077 13.125 365.79 13.0065 365.58 12.7955C365.369 12.5845 365.25 12.2984 365.25 12C365.25 11.7016 365.369 11.4155 365.58 11.2045C365.79 10.9935 366.077 10.875 366.375 10.875C366.673 10.875 366.96 10.9935 367.17 11.2045C367.381 11.4155 367.5 11.7016 367.5 12C367.5 12.2984 367.381 12.5845 367.17 12.7955C366.96 13.0065 366.673 13.125 366.375 13.125ZM366.375 18.3C366.077 18.3 365.79 18.1815 365.58 17.9705C365.369 17.7595 365.25 17.4734 365.25 17.175C365.25 16.8766 365.369 16.5905 365.58 16.3795C365.79 16.1685 366.077 16.05 366.375 16.05C366.673 16.05 366.96 16.1685 367.17 16.3795C367.381 16.5905 367.5 16.8766 367.5 17.175C367.5 17.4734 367.381 17.7595 367.17 17.9705C366.96 18.1815 366.673 18.3 366.375 18.3ZM369 11.25H378.75V12.75H369V11.25ZM369 16.5H378.75V18H369V16.5Z" fill="black"/>
</g>
<g clip-path="url(#clip13_49_73)">
<path d="M123.865 13.5C124.038 13.887 124.125 14.3175 124.125 14.79C124.125 15.7965 123.732 16.584 122.947 17.1503C122.16 17.7165 121.075 18 119.69 18C118.46 18 117.242 17.7143 116.037 17.142V15.45C117.177 16.1078 118.343 16.437 119.536 16.437C121.45 16.437 122.409 15.888 122.416 14.7892C122.42 14.5665 122.379 14.3452 122.295 14.1386C122.212 13.9321 122.087 13.7444 121.93 13.587L121.84 13.4992H113.25V11.9992H126.75V13.4992H123.865V13.5ZM120.807 11.25H116.722C116.59 11.1302 116.47 10.9992 116.361 10.8585C116.037 10.44 115.875 9.9345 115.875 9.339C115.875 8.412 116.224 7.62375 116.923 6.97425C117.622 6.32475 118.703 6 120.167 6C121.27 6 122.326 6.246 123.333 6.738V8.352C122.433 7.83675 121.447 7.5795 120.374 7.5795C118.514 7.5795 117.584 8.166 117.584 9.339C117.584 9.654 117.748 9.9285 118.075 10.1632C118.402 10.398 118.805 10.5847 119.284 10.7257C119.749 10.8607 120.257 11.0363 120.807 11.25V11.25Z" fill="black"/>
</g>
<g clip-path="url(#clip14_49_73)">
<path d="M151.197 6L154.875 10.446L158.553 6H160.5L155.849 11.6227L160.5 17.2455V17.25H158.557L154.875 12.7995L151.193 17.25H149.25V17.2455L153.901 11.6227L149.25 6H151.197ZM163.162 15.435C163.24 15.3617 163.296 15.2692 163.326 15.1671C163.355 15.0649 163.357 14.9566 163.331 14.8534C163.305 14.7502 163.252 14.6558 163.178 14.5798C163.103 14.5039 163.01 14.4491 162.907 14.4211C162.805 14.3931 162.696 14.3929 162.594 14.4205C162.491 14.4481 162.397 14.5026 162.322 14.5783C162.248 14.654 162.194 14.7483 162.168 14.8514C162.142 14.9544 162.143 15.0627 162.172 15.165L161.306 15.4125C161.243 15.1891 161.232 14.954 161.274 14.7256C161.317 14.4973 161.412 14.2819 161.552 14.0965C161.692 13.9112 161.873 13.7608 162.081 13.6573C162.289 13.5537 162.518 13.4999 162.75 13.5C163.05 13.5 163.344 13.5902 163.592 13.7589C163.841 13.9275 164.033 14.1668 164.144 14.4459C164.255 14.725 164.279 15.0309 164.214 15.3241C164.149 15.6173 163.998 15.8843 163.78 16.0905L162.558 17.25H164.25V18H161.25V17.25L163.162 15.435Z" fill="black"/>
</g>
<g clip-path="url(#clip15_49_73)">
<path d="M187.197 6.75L190.875 11.196L194.553 6.75H196.5L191.849 12.3727L196.5 17.9955V18H194.557L190.875 13.5495L187.193 18H185.25V17.9955L189.901 12.3727L185.25 6.75H187.197ZM199.162 7.935C199.24 7.86173 199.296 7.76925 199.326 7.66705C199.355 7.56485 199.357 7.45661 199.331 7.35342C199.305 7.25023 199.252 7.15581 199.178 7.07983C199.103 7.00385 199.01 6.94905 198.907 6.92106C198.805 6.89306 198.696 6.89286 198.594 6.9205C198.491 6.94813 198.397 7.00259 198.322 7.07831C198.248 7.15402 198.194 7.24825 198.168 7.35135C198.142 7.45445 198.143 7.5627 198.172 7.665L197.306 7.9125C197.243 7.68912 197.232 7.454 197.274 7.22565C197.317 6.99729 197.412 6.78194 197.552 6.59655C197.692 6.41115 197.873 6.26078 198.081 6.15726C198.289 6.05374 198.518 5.99991 198.75 6C199.05 6.00004 199.344 6.09022 199.592 6.25886C199.841 6.4275 200.033 6.66684 200.144 6.94591C200.255 7.22497 200.279 7.5309 200.214 7.82411C200.149 8.11732 199.998 8.3843 199.78 8.5905L198.558 9.75H200.25V10.5H197.25V9.75L199.162 7.935Z" fill="black"/>
</g>
<g clip-path="url(#clip16_49_73)">
<path d="M300.75 10.5V13.5H305.25V10.5H300.75ZM299.25 10.5H294.75V13.5H299.25V10.5ZM300.75 17.25H305.25V15H300.75V17.25ZM299.25 17.25V15H294.75V17.25H299.25ZM300.75 6.75V9H305.25V6.75H300.75ZM299.25 6.75H294.75V9H299.25V6.75ZM294 5.25H306C306.199 5.25 306.39 5.32902 306.53 5.46967C306.671 5.61032 306.75 5.80109 306.75 6V18C306.75 18.1989 306.671 18.3897 306.53 18.5303C306.39 18.671 306.199 18.75 306 18.75H294C293.801 18.75 293.61 18.671 293.47 18.5303C293.329 18.3897 293.25 18.1989 293.25 18V6C293.25 5.80109 293.329 5.61032 293.47 5.46967C293.61 5.32902 293.801 5.25 294 5.25V5.25Z" fill="black"/>
</g>
<g clip-path="url(#clip17_49_73)">
<path d="M630.75 14.25V16.5H633V18H630.75V20.25H629.25V18H627V16.5H629.25V14.25H630.75ZM630.756 5.25C631.167 5.25 631.5 5.58375 631.5 5.99475V12.75H630V6.75H618V17.2493L625.5 9.75L627.75 12V14.1218L625.5 11.8718L620.12 17.25H625.5V18.75H617.244C617.047 18.7498 616.857 18.6712 616.718 18.5316C616.578 18.392 616.5 18.2026 616.5 18.0052V5.99475C616.501 5.79778 616.58 5.60926 616.719 5.46991C616.859 5.33056 617.047 5.25157 617.244 5.25H630.756ZM621 8.25C621.398 8.25 621.779 8.40804 622.061 8.68934C622.342 8.97064 622.5 9.35218 622.5 9.75C622.5 10.1478 622.342 10.5294 622.061 10.8107C621.779 11.092 621.398 11.25 621 11.25C620.602 11.25 620.221 11.092 619.939 10.8107C619.658 10.5294 619.5 10.1478 619.5 9.75C619.5 9.35218 619.658 8.97064 619.939 8.68934C620.221 8.40804 620.602 8.25 621 8.25V8.25Z" fill="black"/>
</g>
<g clip-path="url(#clip18_49_73)">
<path d="M81 5.25V12C81 12.7956 81.3161 13.5587 81.8787 14.1213C82.4413 14.6839 83.2044 15 84 15C84.7956 15 85.5587 14.6839 86.1213 14.1213C86.6839 13.5587 87 12.7956 87 12V5.25H88.5V12C88.5 13.1935 88.0259 14.3381 87.182 15.182C86.3381 16.0259 85.1935 16.5 84 16.5C82.8065 16.5 81.6619 16.0259 80.818 15.182C79.9741 14.3381 79.5 13.1935 79.5 12V5.25H81ZM78 18H90V19.5H78V18Z" fill="black"/>
</g>
<path d="M84 24L88.3301 21.75H79.6699L84 24Z" fill="#333333" fill-opacity="0.5"/>
<g clip-path="url(#clip19_49_73)">
<path d="M401.25 6H414.75V7.5H401.25V6ZM401.25 17.25H411.75V18.75H401.25V17.25ZM401.25 13.5H414.75V15H401.25V13.5ZM401.25 9.75H411.75V11.25H401.25V9.75Z" fill="black"/>
</g>
<path d="M408 24L412.33 21.75H403.67L408 24Z" fill="#333333" fill-opacity="0.5"/>
<g clip-path="url(#clip20_49_73)">
<path d="M690.75 17.25H691.811L698.796 10.2645L697.736 9.204L690.75 16.1895V17.25ZM702.75 18.75H689.25V15.5678L699.326 5.4915C699.467 5.3509 699.658 5.27191 699.857 5.27191C700.055 5.27191 700.246 5.3509 700.387 5.4915L702.508 7.61325C702.649 7.7539 702.728 7.94463 702.728 8.1435C702.728 8.34237 702.649 8.53311 702.508 8.67375L693.932 17.25H702.75V18.75ZM698.796 8.1435L699.857 9.204L700.917 8.1435L699.857 7.083L698.796 8.1435V8.1435Z" fill="black"/>
</g>
<path d="M731.092 16V8H732.908V16H731.092ZM728 12.9075V11.0925H736V12.9075H728Z" fill="black"/>
<path d="M764 12.9075V11.0925H772V12.9075H764Z" fill="black"/>
<path d="M834 9H846V18.75C846 18.9489 845.921 19.1397 845.78 19.2803C845.64 19.421 845.449 19.5 845.25 19.5H834.75C834.551 19.5 834.36 19.421 834.22 19.2803C834.079 19.1397 834 18.9489 834 18.75V9ZM835.5 10.5V18H844.5V10.5H835.5ZM837.75 12H839.25V16.5H837.75V12ZM840.75 12H842.25V16.5H840.75V12ZM836.25 6.75V5.25C836.25 5.05109 836.329 4.86032 836.47 4.71967C836.61 4.57902 836.801 4.5 837 4.5H843C843.199 4.5 843.39 4.57902 843.53 4.71967C843.671 4.86032 843.75 5.05109 843.75 5.25V6.75H847.5V8.25H832.5V6.75H836.25ZM837.75 6V6.75H842.25V6H837.75Z" fill="black"/>
<defs>
<clipPath id="clip0_49_73">
<rect width="18" height="18" fill="white" transform="translate(471 3)"/>
</clipPath>
<clipPath id="clip1_49_73">
<rect width="18" height="18" fill="white" transform="translate(507 3)"/>
</clipPath>
<clipPath id="clip2_49_73">
<rect width="18" height="18" fill="white" transform="translate(795 3)"/>
</clipPath>
<clipPath id="clip3_49_73">
<rect width="18" height="18" fill="white" transform="translate(435 3)"/>
</clipPath>
<clipPath id="clip4_49_73">
<rect width="18" height="18" fill="white" transform="translate(3 3)"/>
</clipPath>
<clipPath id="clip5_49_73">
<rect width="18" height="18" fill="white" transform="translate(651 3)"/>
</clipPath>
<clipPath id="clip6_49_73">
<rect width="18" height="18" fill="white" transform="translate(543 3)"/>
</clipPath>
<clipPath id="clip7_49_73">
<rect width="18" height="18" fill="white" transform="translate(579 3)"/>
</clipPath>
<clipPath id="clip8_49_73">
<rect width="18" height="18" fill="white" transform="translate(39 3)"/>
</clipPath>
<clipPath id="clip9_49_73">
<rect width="18" height="18" fill="white" transform="translate(219 3)"/>
</clipPath>
<clipPath id="clip10_49_73">
<rect width="18" height="18" fill="white" transform="translate(255 3)"/>
</clipPath>
<clipPath id="clip11_49_73">
<rect width="18" height="18" fill="white" transform="translate(327 3)"/>
</clipPath>
<clipPath id="clip12_49_73">
<rect width="18" height="18" fill="white" transform="translate(363 3)"/>
</clipPath>
<clipPath id="clip13_49_73">
<rect width="18" height="18" fill="white" transform="translate(111 3)"/>
</clipPath>
<clipPath id="clip14_49_73">
<rect width="18" height="18" fill="white" transform="translate(147 3)"/>
</clipPath>
<clipPath id="clip15_49_73">
<rect width="18" height="18" fill="white" transform="translate(183 3)"/>
</clipPath>
<clipPath id="clip16_49_73">
<rect width="18" height="18" fill="white" transform="translate(291 3)"/>
</clipPath>
<clipPath id="clip17_49_73">
<rect width="18" height="18" fill="white" transform="translate(615 3)"/>
</clipPath>
<clipPath id="clip18_49_73">
<rect width="18" height="18" fill="white" transform="translate(75 3)"/>
</clipPath>
<clipPath id="clip19_49_73">
<rect width="18" height="18" fill="white" transform="translate(399 3)"/>
</clipPath>
<clipPath id="clip20_49_73">
<rect width="18" height="18" fill="white" transform="translate(687 3)"/>
</clipPath>
</defs>
</svg>
